<svg height='50px' width='50px' viewBox="0 0 512.001 512.001">
    <path fill="#F7A253" d="M248.399,0.135C135.421,4.152,47.514,100.436,47.514,213.484V508.8c0,2.792,3.432,4.127,5.319,2.069 l57.191-62.39c3.756-4.098,10.216-4.098,13.971,0l55.336,60.365c3.858,4.209,10.493,4.209,14.35,0l55.334-60.365 c3.756-4.098,10.216-4.098,13.971,0l55.334,60.365c3.858,4.209,10.493,4.209,14.35,0l55.336-60.365 c3.756-4.098,10.216-4.098,13.971,0l57.191,62.39c1.887,2.059,5.319,0.724,5.319-2.069V208.486 C464.489,90.819,367.009-4.082,248.399,0.135z"/>
    <path fill="#F08C46" d="M151.758,227.632c0-107.205,79.072-199.275,183.593-211.938 C308.687,4.707,279.273-0.963,248.399,0.135C135.421,4.152,47.514,100.436,47.514,213.484V508.8c0,2.792,3.432,4.127,5.319,2.069 l57.191-62.39c3.755-4.098,10.216-4.098,13.971,0l27.762,30.285V227.632H151.758z"/>
    <path fill="#FFFFFF" d="M186.385,303.255L186.385,303.255c-31.001,0-56.132-25.131-56.132-56.132v-20.412 c0-31.001,25.131-56.132,56.132-56.132l0,0c31.001,0,56.132,25.131,56.132,56.132v20.412 C242.515,278.124,217.385,303.255,186.385,303.255z"/>
    <path fill="#E4EAF6" d="M217.002,293.049c-31.001,0-56.132-25.131-56.132-56.132v-20.412 c0-18.952,9.419-35.676,23.803-45.839c-30.201,0.912-54.421,25.621-54.421,56.045v20.412c0,31.001,25.131,56.132,56.132,56.132 c12.048,0,23.184-3.831,32.327-10.292C218.139,292.98,217.579,293.049,217.002,293.049z"/>
    <path fill="#82B9FF" d="M201.693,262.431L201.693,262.431c-11.273,0-20.412-9.138-20.412-20.412v-10.205 c0-11.273,9.138-20.412,20.412-20.412l0,0c11.273,0,20.412,9.138,20.412,20.412v10.205 C222.105,253.294,212.966,262.431,201.693,262.431z"/>
    <path fill="#FFFFFF" d="M325.619,303.255L325.619,303.255c-31.001,0-56.132-25.131-56.132-56.132v-20.412 c0-31.001,25.131-56.132,56.132-56.132l0,0c31.001,0,56.132,25.131,56.132,56.132v20.412 C381.75,278.124,356.619,303.255,325.619,303.255z"/>
    <path fill="#E4EAF6" d="M356.236,293.049c-31.001,0-56.132-25.131-56.132-56.132v-20.412 c0-18.952,9.419-35.676,23.804-45.839c-30.201,0.912-54.421,25.621-54.421,56.045v20.412c0,31.001,25.131,56.132,56.132,56.132 c12.048,0,23.184-3.831,32.327-10.292C357.374,292.98,356.814,293.049,356.236,293.049z"/>
    <path fill="#82B9FF" d="M340.927,262.431L340.927,262.431c-11.273,0-20.412-9.138-20.412-20.412v-10.205 c0-11.273,9.138-20.412,20.412-20.412l0,0c11.273,0,20.412,9.138,20.412,20.412v10.205 C361.339,253.294,352.201,262.431,340.927,262.431z"/>
</svg>